<?xml version="1.0" encoding="UTF-8"?>
<!-- Created with Inkscape (http://www.inkscape.org/) -->
<svg width="64" height="64" version="1.1" viewBox="0 0 64 64" xmlns="http://www.w3.org/2000/svg" xmlns:xlink="http://www.w3.org/1999/xlink">
 <path d="m32.556 2.3894c-16.552 0-29.975 13.411-29.975 29.956 0 13.235 8.5888 24.461 20.501 28.423 1.4999 0.27586 2.0465-0.64914 2.0465-1.4436 0-0.71167-0.02576-2.5947-0.04048-5.0938-8.3386 1.8095-10.098-4.0162-10.098-4.0162-1.3637-3.4609-3.3292-4.3822-3.3292-4.3822-2.7219-1.8573 0.20612-1.8205 0.20612-1.8205 3.009 0.21148 4.5916 3.0876 4.5916 3.0876 2.674 4.5771 7.0172 3.2549 8.725 2.4881 0.27237-1.9346 1.0472-3.2549 1.9029-4.0034-6.6565-0.7558-13.655-3.3266-13.655-14.805 0-3.2696 1.1686-5.9453 3.0862-8.038-0.30918-0.75764-1.3379-3.8047 0.29445-7.9276 0 0 2.5157-0.80545 8.2429 3.071 2.3906-0.66569 4.956-0.9967 7.5049-1.0096 2.547 0.01287 5.1106 0.34388 7.5049 1.0096 5.7234-3.8765 8.2355-3.071 8.2355-3.071 1.6361 4.1229 0.60731 7.17 0.29998 7.9276 1.9213 2.0927 3.0807 4.7683 3.0807 8.038 0 11.508-7.0098 14.04-13.687 14.781 1.0748 0.92498 2.0336 2.7529 2.0336 5.5462 0 4.0052-0.03684 7.2362-0.03684 8.2182 0 0.80177 0.54106 1.7341 2.0612 1.4417 11.903-3.9703 20.485-15.19 20.485-28.421 0-16.545-13.423-29.956-29.981-29.956" style="fill-rule:evenodd;fill:#ffffff"/>
</svg>
