<?xml version="1.0" encoding="UTF-8" standalone="no"?>
<svg
   xmlns:dc="http://purl.org/dc/elements/1.1/"
   xmlns:cc="http://creativecommons.org/ns#"
   xmlns:rdf="http://www.w3.org/1999/02/22-rdf-syntax-ns#"
   xmlns:svg="http://www.w3.org/2000/svg"
   xmlns="http://www.w3.org/2000/svg"
   xmlns:sodipodi="http://sodipodi.sourceforge.net/DTD/sodipodi-0.dtd"
   xmlns:inkscape="http://www.inkscape.org/namespaces/inkscape"
   inkscape:version="1.0 (4035a4fb49, 2020-05-01)"
   sodipodi:docname="thunderbird-watermark.svg"
   id="svg4"
   version="1.1"
   width="225"
   height="225">
  <metadata
     id="metadata10">
    <rdf:RDF>
      <cc:Work
         rdf:about="">
        <dc:format>image/svg+xml</dc:format>
        <dc:type
           rdf:resource="http://purl.org/dc/dcmitype/StillImage" />
        <dc:title></dc:title>
      </cc:Work>
    </rdf:RDF>
  </metadata>
  <defs
     id="defs8" />
  <sodipodi:namedview
     inkscape:current-layer="svg4"
     inkscape:window-maximized="0"
     inkscape:window-y="183"
     inkscape:window-x="1629"
     inkscape:cy="150"
     inkscape:cx="150"
     inkscape:zoom="2.7966667"
     showgrid="false"
     id="namedview6"
     inkscape:window-height="1027"
     inkscape:window-width="1502"
     inkscape:pageshadow="2"
     inkscape:pageopacity="0"
     guidetolerance="10"
     gridtolerance="10"
     objecttolerance="10"
     borderopacity="1"
     bordercolor="#666666"
     pagecolor="#ffffff" />
  <path
     id="path2"
     stroke-width="1.72523"
     stroke="#ffffff"
     fill="#003eaa"
     d="m 219.89727,95.85808 c -2.05463,-11.128297 -6.33512,-21.908835 -12.15659,-31.646095 -0.51366,-0.869399 -1.02732,-1.912676 -1.71219,-2.782074 -1.19854,-1.912676 -2.5683,-3.825353 -3.93805,-5.738028 -12.32783,-17.561845 -22.08734,-23.473753 -23.97075,-24.51703 -1.7122,-1.217159 -3.42439,-2.434315 -5.1366,-3.477592 -15.92343,-10.085021 -26.1966,-11.476057 -26.1966,-11.476057 -7.36245,-3.129833 -14.55368,-4.86863 -19.86149,-5.738028 -11.47171,-1.3910372 -21.06001,-1.2171571 -29.449776,0 1.369758,-2.4343149 2.568296,-3.3037131 2.910726,-3.4775927 h 0.17123 -0.17123 C 96.276688,7.3533425 91.311318,10.135417 86.859607,12.917491 89.941561,6.8317036 96.447907,3.3541109 97.304005,2.8324718 h 0.171219 C 92.338636,2.4847126 77.784965,5.7884258 65.285931,19.872676 26.419072,36.391242 3.1331984,72.558208 3.1331984,112.02889 c 0,29.9073 11.3004966,51.12061 23.7995316,65.37874 l 0.17122,0.34776 c 11.814155,13.04098 24.826849,19.99616 30.990756,21.90884 0.856099,0.34776 1.712196,0.52164 2.397075,0.52164 -0.171219,0 -0.171219,-0.17388 -0.342439,-0.17388 0.17122,-0.52163 -7.876103,-13.56261 -11.471717,-29.21178 7.191225,7.47682 15.752208,13.21485 25.340507,14.25813 1.027319,0.17388 -3.424392,-5.39027 -8.218542,-12.69321 l 6.506346,2.26042 71.398594,24.16928 c -7.02001,7.30295 -16.43708,14.43202 -29.27855,20.69168 0,0 28.7649,-2.43432 42.97613,-18.60512 -5.82147,13.56261 -21.7449,20.86555 -21.7449,20.86555 11.64293,-1.73879 42.46248,-10.95442 61.98151,-35.8192 22.25855,-28.16851 28.93612,-54.59821 22.25855,-90.06966 z m -56.84492,65.90039 c -2.22585,10.95442 -6.84879,23.12599 -17.29318,34.77593 L 19.570285,153.93388 c -3.595612,-11.64994 -5.307809,-25.21254 -4.280491,-41.0356 2.225856,4.17311 8.903422,7.65072 13.012693,7.8246 -9.588299,-21.734966 -5.821467,-36.688616 1.369757,-46.599756 2.568295,3.825352 5.821469,8.693982 9.41708,14.084251 0,-0.347759 0,-0.695518 0,-1.043278 0.17122,-1.391037 0.34244,-2.434314 0.684879,-3.477592 -3.253173,-4.86863 -5.992687,-9.041742 -8.047322,-11.997695 3.938051,-4.520871 8.389762,-7.824584 12.327813,-10.08502 0.17122,1.912676 0.51366,3.651473 1.027318,5.738029 0.684878,2.955954 0.856099,7.302944 0.513659,10.780538 v -0.173881 c 0,0.695519 -0.17122,1.391037 -0.342439,2.086556 -0.17122,0.695518 -2.054635,2.608195 -2.568295,7.650705 -0.513658,5.390269 1.369757,8.346222 3.253174,10.606658 2.225854,-2.086555 6.335128,-7.302946 13.868791,-10.258899 7.533665,-3.129833 12.499034,-7.650704 22.087334,-12.519334 5.65025,-2.955954 11.642937,-2.608195 19.176604,-2.260436 13.52635,2.434316 31.3332,7.302946 47.94151,8.172343 3.76682,9.041742 5.3078,22.082711 5.3078,22.430471 0,1.21716 0.17122,2.26044 0.17122,3.30372 -29.44977,11.30217 -64.036151,24.16927 -78.589821,27.99462 -1.198537,0.34776 -13.868791,-18.25737 -25.682947,-35.993087 -0.17122,0.347759 -0.513659,0.521639 -0.684879,0.695518 -0.342439,0.347759 -0.684878,0.695519 -0.856098,1.043279 h -1.027318 c 12.670255,18.95288 26.196606,38.60128 27.566363,38.60128 12.841474,-4.69474 51.19468,-18.08348 79.10348,-27.82074 -0.17122,21.38719 -5.3078,29.38566 -5.3078,29.38566 0,0 7.02,-2.78207 14.21122,-10.08502 0,5.9119 -1.54097,21.21332 -13.69757,35.99309 0,0 6.33513,-1.7388 13.52635,-5.21639 z" />
</svg>
